<?xml version="1.0" encoding="utf-8"?>
<!-- Generator: Adobe Illustrator 24.1.2, SVG Export Plug-In . SVG Version: 6.00 Build 0)  -->
<svg version="1.1" id="Capa_1" xmlns="http://www.w3.org/2000/svg" xmlns:xlink="http://www.w3.org/1999/xlink" x="0px" y="0px"
	 viewBox="0 0 200 100" style="enable-background:new 0 0 200 100;" xml:space="preserve">
<style type="text/css">
	.st0{fill:#6D6E71;}
	.st1{fill:#D1D3D4;}
	.st2{fill:none;}
</style>
<path class="st0" d="M15.9,41.6h2.4v16.7h-2.4V41.6z"/>
<path class="st0" d="M32.1,49.1h5.8v3.4c0,1.7-0.6,3.1-1.7,4.2c-1.1,1.1-2.4,1.7-4.1,1.7c-1.3,0-2.3-0.3-3.2-1
	c-0.9-0.6-1.5-1.3-1.9-2.1c-0.1-0.2-0.2-0.5-0.3-0.7s-0.1-0.5-0.2-0.9c-0.1-0.7-0.1-2-0.1-3.9c0-2,0-3.2,0.1-3.9
	c0.1-0.6,0.3-1.2,0.5-1.6c0.4-0.8,1-1.5,1.9-2.1c0.8-0.6,1.9-0.9,3.2-0.9c1.6,0,2.8,0.5,3.8,1.4c1,0.9,1.6,2.1,1.9,3.5h-2.5
	c-0.2-0.7-0.6-1.3-1.1-1.7c-0.5-0.4-1.2-0.7-2-0.7c-0.6,0-1.1,0.1-1.5,0.3c-0.4,0.2-0.8,0.5-1,0.9c-0.3,0.3-0.5,0.8-0.6,1.4
	c-0.1,0.6-0.2,1.7-0.2,3.4c0,1.7,0,2.7,0.2,3.3c0.1,0.6,0.3,1.1,0.6,1.4c0.2,0.3,0.6,0.6,1,0.8c0.4,0.2,0.9,0.4,1.5,0.4
	c1,0,1.8-0.3,2.3-1c0.6-0.6,0.9-1.5,1-2.5v-0.9h-3.3L32.1,49.1L32.1,49.1z"/>
<path class="st0" d="M55.5,41.6h10.4V44H58v4.8h6.7v2.2H58V56h7.9v2.4H55.5V41.6z"/>
<path class="st0" d="M83.4,57.1c-1,0.9-2.2,1.4-3.8,1.5c-1.3,0-2.3-0.3-3.2-1c-0.9-0.6-1.5-1.3-1.9-2.1c-0.1-0.2-0.2-0.5-0.3-0.7
	s-0.1-0.5-0.2-0.9c-0.1-0.7-0.1-2-0.1-3.9c0-2,0-3.2,0.1-3.9c0.1-0.6,0.3-1.2,0.5-1.6c0.4-0.8,1-1.5,1.9-2.1
	c0.8-0.6,1.9-0.9,3.2-0.9c1.3,0,2.3,0.3,3.2,0.9c0.8,0.6,1.5,1.3,1.9,2.1c0.3,0.4,0.4,0.9,0.6,1.6c0.1,0.6,0.1,2,0.1,3.9
	c0,1.7,0,2.9-0.1,3.6c-0.1,0.7-0.2,1.2-0.5,1.6l2.2,1.8l-1.5,1.8L83.4,57.1z M79.3,53.7l1.5-1.7l1.9,1.6c0.1-0.6,0.2-1.7,0.2-3.5
	c0-1.7,0-2.8-0.1-3.4c-0.1-0.6-0.3-1-0.6-1.4c-0.2-0.3-0.6-0.6-1-0.9c-0.4-0.2-0.9-0.3-1.5-0.3s-1.1,0.1-1.5,0.3
	c-0.4,0.2-0.8,0.5-1,0.9c-0.3,0.3-0.5,0.8-0.6,1.4c-0.1,0.6-0.2,1.7-0.2,3.4c0,1.7,0,2.7,0.2,3.3c0.1,0.6,0.3,1.1,0.6,1.4
	c0.2,0.3,0.6,0.6,1,0.8c0.4,0.2,0.9,0.4,1.5,0.4c0.7,0,1.4-0.2,1.8-0.6L79.3,53.7z"/>
<rect x="45.8" y="34" class="st1" width="1.8" height="32"/>
<g>
	<path class="st0" d="M96.7,94.9H6V5.1h90.7V94.9z M7.9,93h86.9V7H7.9V93z"/>
</g>
<rect x="-321" y="-247.6" class="st2" width="841.9" height="595.3"/>
<g>
	<path class="st0" d="M104.6,39.5h2.8c0.6,0,1.1,0.1,1.5,0.5c0.4,0.3,0.7,0.9,0.7,1.6c0,1-0.5,1.7-1.4,2l1.7,3.2h-1.3l-1.5-3.1h-1.4
		v3.1h-1.1L104.6,39.5L104.6,39.5z M105.7,42.7h1.6c0.4,0,0.7-0.1,0.9-0.3c0.2-0.2,0.3-0.5,0.3-0.8c0-0.4-0.1-0.6-0.3-0.8
		c-0.2-0.1-0.4-0.2-0.8-0.2h-1.7L105.7,42.7L105.7,42.7z"/>
	<path class="st0" d="M111.1,39.5h4.5v1h-3.5v2.1h2.9v1h-2.9v2.2h3.5v1h-4.5V39.5z"/>
	<path class="st0" d="M120.7,45.2H118l-0.5,1.6h-1.1l2.6-7.3h0.9l2.6,7.3h-1.1L120.7,45.2z M120.4,44.2l-1-3.2l0,0l-1,3.2H120.4z"/>
	<path class="st0" d="M123.6,39.5h1.1v6.3h3.5v1h-4.5L123.6,39.5L123.6,39.5z"/>
	<path class="st0" d="M132.3,39.5h4.5v1h-3.5v2.1h2.9v1h-2.9v2.2h3.5v1h-4.5V39.5z"/>
	<path class="st0" d="M138.4,45c0.6,0.5,1.2,0.7,2,0.7c0.9,0,1.4-0.3,1.4-1c0-0.5-0.3-0.9-0.9-1c-0.3,0-0.6-0.1-0.9-0.1
		c-0.6-0.1-1.1-0.3-1.4-0.7c-0.3-0.4-0.5-0.8-0.5-1.4c0-0.6,0.2-1.2,0.6-1.6c0.4-0.4,1-0.6,1.7-0.6c0.9,0,1.7,0.3,2.3,0.7l-0.6,0.9
		c-0.5-0.3-1.1-0.5-1.8-0.6c-0.3,0-0.6,0.1-0.8,0.2c-0.2,0.2-0.3,0.4-0.3,0.8c0,0.2,0.1,0.4,0.2,0.6c0.1,0.2,0.4,0.3,0.8,0.3
		c0.2,0,0.4,0,0.8,0.1c0.7,0.1,1.2,0.3,1.5,0.7c0.3,0.4,0.5,0.8,0.5,1.4c0,1.4-0.9,2.1-2.5,2.2c-1,0-2-0.3-2.7-1L138.4,45z"/>
	<path class="st0" d="M145.6,40.5h-2v-1h4.9v1h-2v6.3h-1.1L145.6,40.5L145.6,40.5z"/>
	<path class="st0" d="M152.7,45.2H150l-0.5,1.6h-1.1l2.6-7.3h0.9l2.6,7.3h-1.1L152.7,45.2z M152.4,44.2l-1-3.2l0,0l-1,3.2H152.4z"/>
	<path class="st0" d="M156,40.5h-2v-1h4.9v1h-2v6.3H156L156,40.5L156,40.5z"/>
	<path class="st0" d="M160.2,39.5h4.5v1h-3.5v2.1h2.9v1h-2.9v2.2h3.5v1h-4.5V39.5z"/>
	<path class="st0" d="M104.6,51.8h2.5c1,0,1.7,0.4,2.2,1.2c0.2,0.3,0.3,0.5,0.3,0.9c0,0.3,0,0.8,0,1.6c0,0.8,0,1.3-0.1,1.7
		c0,0.1,0,0.3-0.1,0.4c0,0.1-0.1,0.2-0.2,0.4c-0.2,0.3-0.5,0.6-0.9,0.8c-0.3,0.2-0.8,0.3-1.4,0.3h-2.4L104.6,51.8L104.6,51.8z
		 M105.7,58.1h1.3c0.6,0,1-0.2,1.3-0.6c0.1-0.1,0.2-0.3,0.2-0.6c0-0.2,0-0.7,0-1.3c0-0.6,0-1.1,0-1.4c0-0.3-0.1-0.5-0.3-0.7
		c-0.3-0.4-0.7-0.6-1.3-0.6h-1.3V58.1z"/>
	<path class="st0" d="M111.3,51.8h4.5v1h-3.5V55h2.9v1h-2.9v2.2h3.5v1h-4.5L111.3,51.8L111.3,51.8z"/>
	<path class="st0" d="M116.6,51.8h1.1l1.6,5.6l0,0l1.6-5.6h1.1l-2.3,7.3h-0.8L116.6,51.8z"/>
	<path class="st0" d="M123.3,51.8h4.5v1h-3.5V55h2.9v1h-2.9v2.2h3.5v1h-4.5V51.8z"/>
	<path class="st0" d="M129.2,51.8h1.1v6.3h3.5v1h-4.5L129.2,51.8L129.2,51.8z"/>
	<path class="st0" d="M135,55.5c0-0.8,0-1.4,0-1.7c0-0.3,0.1-0.5,0.2-0.7c0.2-0.3,0.4-0.6,0.8-0.9c0.4-0.2,0.8-0.4,1.4-0.4
		c0.6,0,1,0.1,1.4,0.4c0.4,0.2,0.6,0.6,0.8,0.9c0.1,0.2,0.2,0.4,0.2,0.7c0,0.3,0,0.9,0,1.7c0,0.8,0,1.4,0,1.7c0,0.3-0.1,0.5-0.2,0.7
		c-0.1,0.3-0.4,0.6-0.8,0.9c-0.4,0.2-0.8,0.4-1.4,0.4c-0.5,0-1-0.1-1.4-0.4c-0.4-0.2-0.6-0.5-0.8-0.9c0-0.1-0.1-0.2-0.1-0.3
		c0-0.1,0-0.2-0.1-0.4C135,56.9,135,56.3,135,55.5z M136,55.5c0,0.7,0,1.2,0.1,1.5c0,0.2,0.1,0.4,0.3,0.6c0.1,0.1,0.2,0.3,0.4,0.4
		c0.2,0.1,0.4,0.1,0.6,0.1s0.5,0,0.7-0.1c0.2-0.1,0.3-0.2,0.4-0.4c0.1-0.1,0.2-0.3,0.3-0.6c0-0.2,0-0.7,0-1.5c0-0.7,0-1.2,0-1.5
		c0-0.2-0.1-0.4-0.3-0.6c-0.1-0.1-0.2-0.3-0.4-0.4c-0.2-0.1-0.4-0.1-0.7-0.1c-0.2,0-0.5,0-0.6,0.1c-0.2,0.1-0.3,0.2-0.4,0.4
		c-0.1,0.1-0.2,0.3-0.3,0.6C136.1,54.3,136,54.8,136,55.5z"/>
	<path class="st0" d="M141.8,51.8h2.5c0.3,0,0.5,0,0.8,0.1c0.2,0,0.5,0.2,0.8,0.4c0.2,0.1,0.4,0.4,0.5,0.7s0.2,0.6,0.2,1
		c0,0.5-0.2,1-0.5,1.5c-0.4,0.5-0.9,0.7-1.7,0.7h-1.6v2.8h-1.1V51.8z M142.8,55.3h1.6c0.4,0,0.7-0.1,0.9-0.4
		c0.2-0.2,0.3-0.5,0.3-0.8c0-0.2,0-0.4-0.1-0.6c-0.1-0.1-0.2-0.3-0.3-0.3c-0.2-0.1-0.5-0.2-0.8-0.2h-1.6L142.8,55.3L142.8,55.3z"/>
	<path class="st0" d="M148.1,51.8h1l2.1,4.7l2-4.7h1v7.3h-1.1v-4.6l0,0l-1.5,3.5h-0.9l-1.5-3.5l0,0v4.5h-1.1v-7.3H148.1z"/>
	<path class="st0" d="M156.1,51.8h4.5v1h-3.5V55h2.9v1h-2.9v2.2h3.5v1h-4.5V51.8z"/>
	<path class="st0" d="M162.1,51.8h1l3.2,5.2l0,0v-5.2h1.1v7.3h-1l-3.2-5.2l0,0v5.2h-1.1L162.1,51.8L162.1,51.8z"/>
	<path class="st0" d="M170.6,52.8h-2v-1h4.9v1h-2v6.3h-1.1L170.6,52.8L170.6,52.8z"/>
</g>
</svg>
